Coordinates
version=1
nRows=22
nColumns=24
inDegrees=yes

Units are S.I. units (second, meters, Newtons, ...)
Angles are in degrees.

endheader
time	pelvis_tilt	pelvis_list	pelvis_rotation	pelvis_tx	pelvis_ty	pelvis_tz	hip_flexion_r	hip_adduction_r	hip_rotation_r	knee_angle_r	ankle_angle_r	subtalar_angle_r	mtp_angle_r	hip_flexion_l	hip_adduction_l	hip_rotation_l	knee_angle_l	ankle_angle_l	subtalar_angle_l	mtp_angle_l	lumbar_extension	lumbar_bending	lumbar_rotation
      1.32533333	     -2.91182172	      1.34187533	     -3.76058729	      0.50601873	      1.08432520	      0.26160896	     19.37422960	     -4.12634487	     -4.95468267	    -61.94515045	      4.43806125	     -1.21960324	      3.06463543	      8.40548498	      3.22240057	      2.87034868	    -12.77216217	      8.44012391	     -0.06348948	     -3.34661917	     -9.17275345	     -2.88905068	     -2.03205259
      1.32950000	     -2.92350316	      1.21412666	     -3.66533766	      0.51107523	      1.08494606	      0.26127648	     19.79581940	     -3.99476004	     -5.16056752	    -61.26823602	      4.75157098	     -1.10230215	      3.08612114	      7.90580955	      3.11286175	      2.95350457	    -12.33060151	      8.43317411	     -0.00491982	     -3.33976134	     -9.13049936	     -2.66972887	     -2.11058842
      1.33366667	     -2.90113673	      1.11383699	     -3.55712617	      0.51611282	      1.08554389	      0.26090639	     20.17417829	     -3.91178585	     -5.38101087	    -60.57184284	      5.06989265	     -0.87674323	      3.12422699	      7.36321109	      3.04388935	      3.11458022	    -11.87127193	      8.46896956	     -0.05372673	     -3.32331947	     -9.11897336	     -2.49637356	     -2.33970474
      1.33783333	     -2.89630122	      0.98595532	     -3.45735396	      0.52116464	      1.08609761	      0.26058201	     20.55201277	     -3.78564662	     -5.59189161	    -59.82434149	      5.35906780	     -0.76510441	      3.14719884	      6.85607172	      2.93251825	      3.19861491	    -11.45136848	      8.48197428	     -0.02951907	     -3.31373116	     -9.07647427	     -2.29741410	     -2.43714065
      1.34200000	     -2.89952500	      0.88410416	     -3.36531984	      0.52619572	      1.08655134	      0.26027516	     20.94247689	     -3.68799682	     -5.78795643	    -59.07154953	      5.64746076	     -0.63498079	      3.16989244	      6.35603416	      2.84870270	      3.29860805	    -11.02149887	      8.51167960	     -0.01980294	     -3.30318289	     -9.03370679	     -2.12392294	     -2.56967714
      1.34616667	     -2.91670761	      0.78683229	     -3.28807658	      0.53121097	      1.08692552	      0.26000184	     21.34663919	     -3.58700317	     -5.96158865	    -58.30237165	      5.92620677	     -0.56359754	      3.18352086	      5.87317146	      2.76363029	      3.37318801	    -10.59095200	      8.53711708	      0.03535690	     -3.29703334	     -8.98954842	     -1.93925067	     -2.64745295
      1.35033333	     -2.88977684	      0.69473069	     -3.19283180	      0.53620896	      1.08732899	      0.25970860	     21.68474685	     -3.50454669	     -6.15402681	    -57.49280913	      6.17354137	     -0.44785000	      3.20715186	      5.34026522	      2.69220626	      3.52610863	    -10.15682785	      8.57582391	     -0.04022843	     -3.28178170	     -8.98637149	     -1.77917969	     -2.87477919
      1.35450000	     -2.90245466	      0.59822709	     -3.11041729	      0.54121167	      1.08761572	      0.25945880	     22.05766007	     -3.40303420	     -6.32263287	    -56.65860251	      6.42514725	     -0.41622364	      3.22875368	      4.86004251	      2.60655335	      3.63155722	     -9.74101338	      8.58766397	     -0.07028113	     -3.26403497	     -8.93520891	     -1.61604390	     -3.00630717
      1.35866667	     -2.93971610	      0.51302493	     -3.04062421	      0.54620586	      1.08777994	      0.25925037	     22.45614928	     -3.30829907	     -6.47466339	    -55.81142942	      6.64894593	     -0.37627915	      3.23980332	      4.41802342	      2.52596402	      3.69733847	     -9.35083807	      8.65373000	     -0.04109555	     -3.25248118	     -8.85062118	     -1.46180600	     -3.08287267
      1.36283333	     -2.97898533	      0.42967418	     -2.97636587	      0.55119644	      1.08790477	      0.25906426	     22.84522816	     -3.20893869	     -6.60781417	    -54.93454538	      6.87900803	     -0.37520338	      3.24520162	      3.98590265	      2.44425449	      3.73678652	     -8.97586037	      8.70234720	      0.00421878	     -3.24591465	     -8.76526861	     -1.32339121	     -3.14147294
      1.36700000	     -2.95725135	      0.34974024	     -2.90879160	      0.55613312	      1.08807981	      0.25888291	     23.15906672	     -3.11932820	     -6.74390347	    -54.03200497	      7.06657139	     -0.38824898	      3.24818918	      3.48010210	      2.37006551	      3.83155627	     -8.57782314	      8.76918257	      0.00187021	     -3.23427250	     -8.76781391	     -1.17394873	     -3.27864320
      1.37116667	     -3.02340487	      0.29352630	     -2.86297456	      0.56110136	      1.08801956	      0.25875884	     23.57230522	     -3.03825429	     -6.84015850	    -53.13298795	      7.28915309	     -0.42038152	      3.24970807	      3.08257252	      2.31140555	      3.85920308	     -8.21013444	      8.82957612	      0.05647612	     -3.22923142	     -8.65866093	     -1.06488031	     -3.31693001
      1.37533333	     -3.04441200	      0.21795442	     -2.79846210	      0.56603356	      1.08803470	      0.25862995	     23.90809298	     -2.93985191	     -6.94892176	    -52.17397897	      7.44139401	     -0.48799576	      3.24566130	      2.64328812	      2.23417933	      3.93300383	     -7.85630270	      8.89832968	      0.04979714	     -3.22036679	     -8.59820497	     -0.93733318	     -3.42678867
      1.37950000	     -3.08819546	      0.16897884	     -2.75538401	      0.57095489	      1.08791185	      0.25854859	     24.27630345	     -2.86037371	     -7.02406245	    -51.22343167	      7.62733114	     -0.55599519	      3.24219490	      2.23011168	      2.18086513	      3.97362719	     -7.50287903	      8.96961392	      0.08189536	     -3.21370051	     -8.51934117	     -0.83643757	     -3.48749801
      1.38366667	     -3.11501740	      0.11354741	     -2.70765479	      0.57586177	      1.08778985	      0.25847699	     24.60914348	     -2.77246397	     -7.09494432	    -50.23731894	      7.76872554	     -0.66284764	      3.23483930	      1.80052719	      2.11988105	      4.02855421	     -7.15288601	      9.04899479	      0.10262294	     -3.20607200	     -8.46230777	     -0.72946732	     -3.56369261
      1.38783333	     -3.14168852	      0.07493361	     -2.66862913	      0.58074982	      1.08761025	      0.25844166	     24.93787890	     -2.69567731	     -7.14368402	    -49.23824736	      7.90516245	     -0.78279086	      3.22529746	      1.37406973	      2.07472618	      4.07685183	     -6.80785792	      9.13013778	      0.12159911	     -3.19815297	     -8.40814836	     -0.64573082	     -3.63726471
      1.39200000	     -3.18212492	      0.04633451	     -2.63394005	      0.58563222	      1.08735092	      0.25843037	     25.27561982	     -2.62451121	     -7.17768305	    -48.22528351	      8.00508580	     -0.93786003	      3.20935659	      0.95882927	      2.03855064	      4.14061615	     -6.45437768	      9.21848024	      0.12428567	     -3.18748744	     -8.34096793	     -0.57566275	     -3.72294074
      1.39616667	     -3.22791160	      0.02972057	     -2.60377061	      0.59051194	      1.08702415	      0.25844181	     25.61030381	     -2.56123682	     -7.19436316	    -47.19804909	      8.14574519	     -1.06237957	      3.19884275	      0.56305527	      2.01241044	      4.16864817	     -6.13146136	      9.29998929	      0.15472509	     -3.18028886	     -8.26424170	     -0.51735171	     -3.76729270
      1.40033333	     -3.27005928	      0.01075194	     -2.57739339	      0.59538423	      1.08665942	      0.25847618	     25.92993764	     -2.49000206	     -7.19945286	    -46.14711122	      8.25260778	     -1.21621925	      3.18680384	      0.15865107	      1.98192090	      4.20097687	     -5.79773014	      9.39275055	      0.18805882	     -3.17325432	     -8.19708005	     -0.46127657	     -3.81548946
      1.40450000	     -3.29850330	      0.00837409	     -2.55137967	      0.60023721	      1.08627072	      0.25852949	     26.22795094	     -2.43369792	     -7.19009882	    -45.08122365	      8.30800134	     -1.41356338	      3.16715399	     -0.26150826	      1.96915702	      4.25395051	     -5.46055460	      9.49271652	      0.19770164	     -3.16300998	     -8.14992225	     -0.43087917	     -3.88511706
      1.40866667	     -3.36059907	      0.01741366	     -2.53455611	      0.60510986	      1.08575084	      0.25861391	     26.55877109	     -2.38396207	     -7.16766799	    -44.01652809	      8.43507134	     -1.53905086	      3.15716056	     -0.64066430	      1.96478547	      4.27143810	     -5.13633695	      9.58704956	      0.24093187	     -3.15683850	     -8.06407079	     -0.41090097	     -3.91975551
      1.41283333	     -3.38365208	      0.02522413	     -2.51171680	      0.60995911	      1.08528783	      0.25869666	     26.82621883	     -2.32975549	     -7.12883589	    -42.90821581	      8.48551702	     -1.72770181	      3.14148269	     -1.05823161	      1.96038643	      4.30642697	     -4.81960937	      9.68325380	      0.26449284	     -3.14945544	     -8.01607774	     -0.38148511	     -3.96821335
